PathFileType	4	(x/y/z)	S02_SL_Cal_T01
DataRate	CameraRate	NumFrames	NumMarkers	Units	OrigDataRate	OrigDataStartFrame	OrigNumFrames
240	240	7	51	mm	240	1801	2400
Frame#	Time	Sternum			R.Acromium			L.Acromium			Top.Head			R.ASIS			L.ASIS			R.PSIS			L.PSIS			R.Great.Tro			L.Great.Tro			R.Iliac.Crest			L.Iliac.Crest			V.Sacral			R.Thigh.Upper.Post			R.Thigh.Lower.Ant			R.Thigh.Lower.Post			R.Thigh.Upper.Ant			R.Knee.Lat			R.Knee.Med			R.Shank.Upper.Post			R.Shank.Lower.Ant			R.Shank.Lower.Post			R.Shank.Upper.Ant			R.Ankle.Lat			R.Ankle.Med			R.Heel.Upper			R.Heel.Med			R.Heel.Lat			R.Toe.Lat			R.Toe.Med			R.Toe.Tip			L.Thigh.Upper.Post			L.Thigh.Lower.Ant			L.Thigh.Lower.Post			L.Thigh.Upper.Ant			L.Knee.Lat			L.Knee.Med			L.Shank.Upper.Post			L.Shank.Lower.Ant			L.Shank.Lower.Post			L.Shank.Upper.Ant			L.Ankle.Lat			L.Ankle.Med			L.Heel.Upper			L.Heel.Med			L.Heel.Lat			L.Toe.Lat			L.Toe.Med			L.Toe.Tip			Cervical.Spine			Back			
		X1	Y1	Z1	X2	Y2	Z2	X3	Y3	Z3	X4	Y4	Z4	X5	Y5	Z5	X6	Y6	Z6	X7	Y7	Z7	X8	Y8	Z8	X9	Y9	Z9	X10	Y10	Z10	X11	Y11	Z11	X12	Y12	Z12	X13	Y13	Z13	X14	Y14	Z14	X15	Y15	Z15	X16	Y16	Z16	X17	Y17	Z17	X18	Y18	Z18	X19	Y19	Z19	X20	Y20	Z20	X21	Y21	Z21	X22	Y22	Z22	X23	Y23	Z23	X24	Y24	Z24	X25	Y25	Z25	X26	Y26	Z26	X27	Y27	Z27	X28	Y28	Z28	X29	Y29	Z29	X30	Y30	Z30	X31	Y31	Z31	X32	Y32	Z32	X33	Y33	Z33	X34	Y34	Z34	X35	Y35	Z35	X36	Y36	Z36	X37	Y37	Z37	X38	Y38	Z38	X39	Y39	Z39	X40	Y40	Z40	X41	Y41	Z41	X42	Y42	Z42	X43	Y43	Z43	X44	Y44	Z44	X45	Y45	Z45	X46	Y46	Z46	X47	Y47	Z47	X48	Y48	Z48	X49	Y49	Z49	X50	Y50	Z50	X51	Y51	Z51	

1801	7.5	640.15	1125.2	312.5	508.92	1356.5	443.49	520.59	1349.6	147.15	560.41	1642.7	294.62	600.79	938.87	418.11	627.92	925.18	205.56	392.68	971.44	338.01	396.62	970.35	262.74	510.72	834.63	504.87	503.24	840.87	107.47	495.27	989.03	463.85	513.88	974.39	129.97	369	922.76	294.23	511.74	630.84	502.29	558.88	544.86	473.15	487.47	544.08	488.77	578.25	631.93	482.99	498.17	464.44	477.32	491.24	438.33	335.06	418.04	258.15	475.52	494.73	179.48	469.12	428.34	185.22	472.24	490.68	248.97	480.75	452.38	89.81	467.95	467.95	96.913	385.14	398.23	72.293	408.51	415.42	40.603	383.09	397.76	41.701	444.78	552.86	41.287	508.25	598.87	35.489	405.43	638.7	64.554	467.33	454.38	624.96	121	520.51	536.62	120.15	442.75	535.34	135.29	524.67	631.34	106.42	493.08	459.92	124.48	486.83	443.99	264.24	409.72	289.58	115.82	486.72	207.96	115.15	415.07	215.78	125.66	474.1	283.2	106.82	457.57	99.89	121.07	477.75	92.349	201.65	404.3	65.539	159.64	417.77	39.711	191.63	407.5	38.118	130.76	567.95	37.058	79.427	603.17	47.013	184.64	656.1	65.174	130.95	437.12	1407	290.69	375.98	1154.7	297.96
1802	7.5042	640.17	1125.2	312.49	508.93	1356.5	443.47	520.59	1349.7	147.13	560.44	1642.7	294.58	600.81	938.88	418.1	627.93	925.18	205.56	392.7	971.44	338.01	396.63	970.36	262.74	510.73	834.62	504.86	503.25	840.87	107.47	495.29	989.03	463.84	513.89	974.38	129.96	369.01	922.77	294.23	511.75	630.84	502.29	558.89	544.86	473.15	487.48	544.08	488.77	578.26	631.93	482.99	498.17	464.44	477.32	491.25	438.34	335.05	418.04	258.15	475.52	494.73	179.48	469.12	428.34	185.22	472.24	490.68	248.97	480.75	452.38	89.812	467.95	467.95	96.915	385.14	398.23	72.295	408.51	415.42	40.605	383.09	397.77	41.702	444.78	552.86	41.286	508.25	598.87	35.488	405.43	638.7	64.551	467.33	454.38	624.96	121	520.51	536.62	120.15	442.75	535.34	135.29	524.67	631.34	106.42	493.08	459.92	124.48	486.84	443.98	264.24	409.72	289.58	115.82	486.71	207.96	115.15	415.07	215.78	125.66	474.1	283.2	106.82	457.57	99.889	121.07	477.76	92.349	201.65	404.3	65.539	159.64	417.77	39.711	191.63	407.5	38.117	130.76	567.95	37.058	79.427	603.17	47.013	184.64	656.1	65.174	130.95	437.12	1407	290.67	375.99	1154.7	297.95
1803	7.5083	640.2	1125.2	312.49	508.94	1356.5	443.45	520.59	1349.7	147.11	560.47	1642.7	294.55	600.82	938.88	418.09	627.94	925.18	205.55	392.72	971.45	338.01	396.65	970.36	262.74	510.75	834.62	504.86	503.25	840.87	107.47	495.32	989.03	463.84	513.9	974.38	129.96	369.03	922.77	294.23	511.76	630.84	502.29	558.9	544.87	473.14	487.49	544.08	488.77	578.27	631.93	482.98	498.17	464.44	477.31	491.25	438.34	335.05	418.05	258.16	475.52	494.73	179.48	469.12	428.34	185.23	472.23	490.68	248.97	480.75	452.38	89.813	467.95	467.95	96.917	385.14	398.23	72.297	408.51	415.42	40.608	383.09	397.77	41.704	444.78	552.86	41.284	508.25	598.87	35.486	405.43	638.71	64.548	467.33	454.39	624.96	121.01	520.5	536.62	120.15	442.75	535.33	135.29	524.67	631.34	106.41	493.08	459.92	124.48	486.84	443.98	264.24	409.72	289.58	115.82	486.71	207.96	115.15	415.07	215.78	125.66	474.1	283.2	106.82	457.56	99.887	121.07	477.76	92.348	201.65	404.3	65.538	159.64	417.77	39.711	191.63	407.5	38.117	130.76	567.95	37.058	79.427	603.17	47.014	184.64	656.1	65.174	130.95	437.12	1407	290.65	376	1154.7	297.94
1804	7.5125	640.22	1125.2	312.48	508.95	1356.5	443.43	520.59	1349.7	147.09	560.5	1642.7	294.51	600.84	938.88	418.09	627.95	925.17	205.54	392.73	971.45	338.01	396.66	970.36	262.74	510.76	834.62	504.85	503.26	840.87	107.47	495.35	989.03	463.84	513.91	974.38	129.96	369.04	922.77	294.24	511.77	630.84	502.29	558.9	544.87	473.14	487.5	544.08	488.76	578.28	631.92	482.98	498.18	464.44	477.31	491.25	438.34	335.05	418.05	258.16	475.51	494.73	179.49	469.12	428.34	185.23	472.23	490.68	248.98	480.75	452.38	89.814	467.95	467.96	96.918	385.14	398.24	72.299	408.51	415.42	40.61	383.08	397.77	41.706	444.78	552.86	41.283	508.25	598.87	35.485	405.43	638.71	64.545	467.33	454.39	624.96	121.01	520.5	536.61	120.15	442.75	535.33	135.3	524.67	631.34	106.41	493.08	459.92	124.47	486.84	443.98	264.24	409.72	289.58	115.82	486.71	207.96	115.15	415.07	215.78	125.66	474.1	283.2	106.82	457.56	99.885	121.07	477.76	92.347	201.65	404.3	65.538	159.64	417.77	39.711	191.63	407.5	38.116	130.76	567.95	37.058	79.427	603.17	47.014	184.64	656.1	65.174	130.95	437.11	1407	290.63	376.01	1154.7	297.93
1805	7.5167	640.25	1125.2	312.47	508.95	1356.5	443.41	520.59	1349.7	147.08	560.53	1642.6	294.48	600.86	938.89	418.08	627.96	925.17	205.54	392.75	971.45	338.01	396.68	970.36	262.75	510.78	834.62	504.85	503.27	840.87	107.47	495.38	989.03	463.84	513.92	974.38	129.96	369.06	922.77	294.24	511.79	630.85	502.29	558.91	544.87	473.13	487.51	544.08	488.76	578.29	631.92	482.98	498.18	464.44	477.31	491.25	438.34	335.04	418.05	258.16	475.51	494.74	179.49	469.12	428.34	185.24	472.23	490.68	248.98	480.75	452.38	89.815	467.95	467.96	96.92	385.14	398.24	72.301	408.51	415.43	40.613	383.08	397.77	41.708	444.78	552.86	41.282	508.25	598.87	35.484	405.43	638.71	64.542	467.33	454.39	624.96	121.01	520.5	536.61	120.15	442.75	535.33	135.3	524.67	631.34	106.41	493.08	459.91	124.47	486.85	443.98	264.24	409.72	289.58	115.83	486.71	207.96	115.15	415.07	215.78	125.66	474.09	283.2	106.82	457.56	99.882	121.07	477.76	92.347	201.65	404.3	65.537	159.64	417.77	39.712	191.62	407.5	38.116	130.76	567.95	37.057	79.427	603.17	47.014	184.64	656.1	65.175	130.95	437.11	1407	290.61	376.02	1154.7	297.92
1806	7.5208	640.27	1125.2	312.46	508.96	1356.6	443.4	520.59	1349.7	147.06	560.56	1642.6	294.44	600.87	938.89	418.07	627.98	925.17	205.53	392.77	971.46	338.01	396.69	970.36	262.75	510.8	834.62	504.84	503.28	840.86	107.47	495.41	989.03	463.83	513.93	974.38	129.96	369.07	922.77	294.24	511.8	630.85	502.29	558.92	544.87	473.13	487.52	544.08	488.76	578.3	631.92	482.97	498.18	464.44	477.31	491.25	438.35	335.04	418.05	258.17	475.51	494.74	179.49	469.11	428.35	185.24	472.23	490.69	248.99	480.75	452.38	89.815	467.95	467.96	96.922	385.14	398.24	72.303	408.51	415.43	40.616	383.08	397.77	41.711	444.78	552.86	41.281	508.25	598.88	35.483	405.43	638.71	64.538	467.33	454.39	624.96	121.01	520.5	536.61	120.14	442.75	535.33	135.3	524.67	631.34	106.41	493.08	459.91	124.47	486.85	443.98	264.24	409.72	289.58	115.83	486.71	207.96	115.15	415.07	215.78	125.66	474.09	283.2	106.82	457.56	99.879	121.07	477.76	92.347	201.65	404.3	65.537	159.64	417.77	39.712	191.62	407.5	38.115	130.76	567.95	37.057	79.427	603.17	47.013	184.64	656.1	65.175	130.95	437.11	1407	290.59	376.03	1154.7	297.91
1807	7.525	640.29	1125.3	312.45	508.97	1356.6	443.38	520.59	1349.7	147.04	560.59	1642.6	294.4	600.89	938.89	418.06	627.99	925.17	205.52	392.78	971.46	338.01	396.71	970.36	262.75	510.81	834.62	504.84	503.28	840.86	107.47	495.44	989.03	463.83	513.95	974.38	129.95	369.08	922.77	294.24	511.81	630.85	502.29	558.93	544.87	473.12	487.54	544.08	488.76	578.31	631.92	482.97	498.19	464.44	477.3	491.25	438.35	335.04	418.05	258.17	475.51	494.74	179.5	469.11	428.35	185.24	472.22	490.69	248.99	480.75	452.39	89.816	467.95	467.96	96.924	385.14	398.24	72.305	408.51	415.43	40.619	383.08	397.77	41.713	444.78	552.86	41.28	508.25	598.88	35.482	405.43	638.71	64.535	467.33	454.39	624.96	121.02	520.5	536.61	120.14	442.75	535.33	135.3	524.67	631.34	106.41	493.07	459.91	124.47	486.86	443.98	264.24	409.71	289.58	115.83	486.71	207.96	115.15	415.07	215.78	125.67	474.09	283.2	106.82	457.56	99.876	121.07	477.76	92.346	201.65	404.3	65.537	159.64	417.77	39.712	191.62	407.5	38.114	130.76	567.95	37.057	79.427	603.17	47.013	184.64	656.1	65.175	130.95	437.11	1407	290.57	376.04	1154.7	297.9
